<?xml version="1.0" standalone="no"?>
<!DOCTYPE svg PUBLIC "-//W3C//DTD SVG 20010904//EN"
 "http://www.w3.org/TR/2001/REC-SVG-20010904/DTD/svg10.dtd">
<svg version="1.0" xmlns="http://www.w3.org/2000/svg"
 width="512.000000pt" height="512.000000pt" viewBox="0 0 512.000000 512.000000"
 preserveAspectRatio="xMidYMid meet">
<metadata>
Created by potrace 1.14, written by Peter Selinger 2001-2017
</metadata>
<g transform="translate(0.000000,512.000000) scale(0.100000,-0.100000)"
fill="#000000" stroke="none">
<path d="M2459 4485 c-2 -2 -72 -5 -154 -7 -133 -4 -156 -7 -199 -28 -93 -45
-169 -145 -180 -237 -7 -51 -8 -98 -7 -298 1 -193 3 -464 2 -482 0 -7 0 -137
0 -288 0 -151 0 -283 0 -292 0 -10 0 -65 0 -123 0 -58 0 -112 0 -120 0 -8 0
-62 0 -120 0 -58 0 -127 -1 -155 -1 -27 -2 -56 -2 -62 0 -7 1 -138 1 -290 0
-153 1 -318 2 -368 1 -49 1 -97 1 -105 -2 -62 -1 -552 2 -580 9 -109 78 -209
176 -257 74 -36 82 -36 610 -31 250 3 256 4 304 28 143 73 194 185 188 415 -1
11 -1 211 -1 235 0 8 0 62 0 120 0 58 0 113 0 123 0 9 0 141 0 292 0 151 0
281 0 288 0 6 0 77 0 157 0 80 0 152 0 160 1 66 0 332 -2 405 -1 50 -1 96 -1
103 0 6 1 136 1 287 0 151 0 283 0 293 0 17 0 219 -1 237 0 6 1 57 2 115 3
238 -5 342 -29 392 -25 52 -69 103 -116 135 -66 44 -110 51 -350 52 -126 1
-231 4 -235 6 -4 3 -9 3 -11 0z"/>
<path d="M435 3524 c-5 -1 -53 -4 -105 -7 -72 -3 -107 -10 -144 -27 -62 -30
-125 -93 -157 -156 l-24 -49 -2 -1186 c-2 -840 0 -1196 8 -1220 31 -97 89
-167 169 -206 74 -36 85 -36 610 -31 247 3 257 4 304 27 63 32 126 95 156 157
27 57 31 111 29 472 0 127 0 240 0 250 0 9 0 64 0 122 0 58 0 112 0 120 0 8 0
62 0 120 0 58 0 112 0 120 0 8 0 62 0 120 0 58 0 112 0 120 0 8 0 62 0 120 0
58 0 111 0 118 0 6 0 59 0 117 0 58 0 112 0 120 0 8 0 61 0 118 2 242 -2 394
-11 422 -30 93 -89 163 -173 205 -44 21 -65 25 -170 27 -180 4 -219 4 -348 3
-65 0 -121 1 -125 3 -4 3 -11 3 -17 1z"/>
<path d="M4698 2885 c-2 -3 -143 -6 -314 -7 -307 -3 -309 -3 -358 -28 -86 -44
-141 -107 -170 -196 -13 -41 -17 -90 -16 -238 0 -103 2 -191 5 -196 3 -5 2
-11 -2 -13 -5 -3 -6 -58 -3 -122 3 -64 3 -118 0 -120 -3 -2 -3 -56 0 -120 3
-64 3 -118 0 -120 -3 -2 -3 -56 0 -120 3 -64 2 -119 -3 -122 -4 -2 -5 -8 -3
-12 5 -7 6 -69 7 -366 0 -200 3 -220 35 -292 33 -73 141 -154 224 -167 40 -7
165 -7 530 -4 247 3 257 4 304 27 63 31 126 94 157 157 l24 49 0 885 0 885
-25 50 c-60 119 -160 179 -305 184 -38 1 -72 4 -76 6 -3 3 -8 2 -11 0z"/>
</g>
</svg>
